<?xml version="1.0" encoding="UTF-8"?><svg id="dew-point-w" xmlns="http://www.w3.org/2000/svg" width="384" height="384" viewBox="0 0 384 384"><path d="M149.79,51.93c4.35-.91,7.62.09,10.7,3.21,7.31,7.42,18.8,26.88,25.07,36.43,22.36,34.04,67.05,104.64,69.47,144.28,2.44,39.86-23.71,80.2-59.53,96.54-77.56,35.37-165.38-35.29-140.95-118.45,12.1-41.19,45.09-92.87,69.18-128.82,4.19-6.25,17.87-28.1,22.57-31.43.93-.66,2.4-1.53,3.49-1.75Z" fill="#fff"/><path d="M333.95,93.89c0,28.47-23.08,51.55-51.55,51.55s-51.55-23.08-51.55-51.55,23.08-51.55,51.55-51.55,51.55,23.08,51.55,51.55ZM305.01,93.89c0-12.48-10.12-22.6-22.6-22.6s-22.6,10.12-22.6,22.6,10.12,22.6,22.6,22.6,22.6-10.12,22.6-22.6Z" fill="#fff"/></svg>