<?xml version="1.0" encoding="UTF-8"?><svg id="star-w" xmlns="http://www.w3.org/2000/svg" viewBox="0 0 512 512"><path d="M0,200c3.06-10.65,9.66-18.88,20.75-21.75l151.98-14.51L231.8,25.3c11.67-19.2,37.61-19.26,48.59.81l58.87,137.63,151.98,14.51c11.09,2.87,17.69,11.1,20.75,21.75v10l-8.11,14.39-112.66,99.22,33.68,150.04c-.95,20.76-18.93,33.16-38.59,25.52l-129.81-77.13c-1.72-.06-18.67,10.32-21.82,12.16-33.98,19.8-70.44,45.77-105.03,62.97-21.03,10.46-39.79.7-42.66-22.67l33.83-150.8L4.56,219.94l-4.56-9.94v-10ZM256.98,52l-2.24,1.27c-19.25,39.9-33.26,84.65-52.89,124.08-8.09,16.24-15.12,17.63-32.36,19.64-39.69,4.61-81.06,7.43-121.01,10.99-2.81.25-5.68-.14-8.49.02-.25,2,1.69,3.31,2.98,4.51,33.07,30.57,68.68,58.68,102.05,88.95,7.82,8.24,9.02,15.58,7.71,26.79l-30.74,135.75,121.31-72.18c9.97-4.48,17.72-3.68,27.37,1l119.31,71.18-30.71-135.78c-1.28-11.28-.2-18.45,7.68-26.76,32.35-30.01,69.34-57.52,101.05-87.95.8-.77,5.1-4.55,3.98-5.51-2.8-.15-5.68.23-8.49-.02-39.94-3.56-81.32-6.39-121.01-10.99-18.14-2.11-24.35-3.46-32.68-20.32l-52.84-124.67Z" fill="#fff"/></svg>