<?xml version="1.0" encoding="UTF-8"?><svg id="log-out-w" xmlns="http://www.w3.org/2000/svg" width="384" height="384" viewBox="0 0 384 384"><path d="M192.37,384H56.14c-3.98-.97-8-1.51-11.97-2.62-19.58-5.48-36.06-21.94-41.54-41.53-1.11-3.97-1.66-7.99-2.62-11.97V56.99C3.66,26.45,27.07,3.07,58.02.87c42.96,1.99,88.34-2.67,131.02-.04,33.08,2.04,57.34,26.52,59.47,59.53.69,10.79,1.14,30.64-.07,41.07-2.57,22.2-33.67,20.99-35.85,1.58-2.65-23.55,10.38-63.74-25.79-66.26-41.15-2.87-85.69,2.14-127.19.13-12.77,1.58-22.23,10.61-23.58,23.57l-.13,261.85c1.01,14.47,9.97,24.12,24.37,25.77,41.32-2.41,86.38,3.25,127.27.04,36.12-2.84,22.45-48.26,25.05-72.24,2.07-19.12,33.74-21.31,35.92,3.01,1.39,15.52,1.28,50.17-3.7,64.38-7.68,21.93-29.23,38.61-52.43,40.75Z" fill="#fff"/><path d="M321.87,210.39h-159.06c-.47,0-5.8-2.58-6.61-3.12-10.39-6.89-10.39-22.79,0-29.68.81-.54,6.15-3.12,6.61-3.12h159.06l-34.07-34.41c-13.89-17.51,7.08-40.62,26.98-23.97,22.03,18.44,41.72,44.49,63.61,63.62,6.78,8.44,6.49,18.22-.75,26.21-21.64,18.9-41.1,44.65-62.87,62.87-18.37,15.38-39.77-3.13-28.09-22.84l35.18-35.55Z" fill="#fff"/></svg>