<?xml version="1.0" encoding="UTF-8"?><svg id="rain-w" xmlns="http://www.w3.org/2000/svg" width="48" height="48" viewBox="0 0 48 48"><path d="M41.83,10.66c6.86.8,8.4,10.41,1.31,12.28-12.5.28-25.05.04-37.56.12-4.57-.54-6.86-5.4-4.36-9.33,1.1-1.73,2.93-2.77,4.95-3.06.39-4.81,4.57-8.57,9.44-8.23.89.06,1.74.36,2.61.55,3.27-4.1,9.59-3.58,12.2.94,5.1-2.39,10.93,1.23,11.42,6.74Z" fill="#fff"/><path d="M11.69,25.71c.76-.16,1.53.38,1.62,1.15.08.63.08,2.85-.04,3.43-.3,1.45-2.41,1.31-2.59-.14-.07-.59-.09-2.91.02-3.45.08-.4.59-.9.98-.98Z" fill="#fff"/><path d="M23.69,25.71c.76-.16,1.53.38,1.62,1.15.08.63.08,2.85-.04,3.43-.3,1.45-2.41,1.31-2.59-.14-.07-.59-.09-2.91.02-3.45.08-.4.59-.9.98-.98Z" fill="#fff"/><path d="M35.69,25.71c.76-.16,1.53.38,1.62,1.15.08.63.08,2.85-.04,3.43-.3,1.45-2.41,1.31-2.59-.14-.07-.59-.09-2.91.02-3.45.08-.4.59-.9.98-.98Z" fill="#fff"/><path d="M5.69,29.83c.76-.16,1.53.38,1.62,1.15.08.63.08,2.85-.04,3.43-.3,1.45-2.41,1.31-2.59-.14-.07-.59-.09-2.91.02-3.45.08-.4.59-.9.98-.98Z" fill="#fff"/><path d="M17.69,29.83c.76-.16,1.53.38,1.62,1.15.08.63.08,2.85-.04,3.43-.3,1.45-2.41,1.31-2.59-.14-.07-.59-.09-2.91.02-3.45.08-.4.59-.9.98-.98Z" fill="#fff"/><path d="M29.69,29.83c.76-.16,1.53.38,1.62,1.15.08.63.08,2.85-.04,3.43-.3,1.45-2.41,1.31-2.59-.14-.07-.59-.09-2.91.02-3.45.08-.4.59-.9.98-.98Z" fill="#fff"/><path d="M41.69,29.83c.76-.16,1.53.38,1.62,1.15.08.63.08,2.85-.04,3.43-.3,1.45-2.41,1.31-2.59-.14-.07-.59-.09-2.91.02-3.45.08-.4.59-.9.98-.98Z" fill="#fff"/><path d="M11.69,33.96c.76-.16,1.53.38,1.62,1.15.08.63.08,2.85-.04,3.43-.3,1.45-2.41,1.31-2.59-.14-.07-.59-.09-2.91.02-3.45.08-.4.59-.9.98-.98Z" fill="#fff"/><path d="M23.69,33.96c.76-.16,1.53.38,1.62,1.15.08.63.08,2.85-.04,3.43-.3,1.45-2.41,1.31-2.59-.14-.07-.59-.09-2.91.02-3.45.08-.4.59-.9.98-.98Z" fill="#fff"/><path d="M35.69,33.96c.76-.16,1.53.38,1.62,1.15.08.63.08,2.85-.04,3.43-.3,1.45-2.41,1.31-2.59-.14-.07-.59-.09-2.91.02-3.45.08-.4.59-.9.98-.98Z" fill="#fff"/><path d="M5.69,38.08c.76-.16,1.53.38,1.62,1.15.08.63.08,2.85-.04,3.43-.3,1.45-2.41,1.31-2.59-.14-.07-.59-.09-2.91.02-3.45.08-.4.59-.9.98-.98Z" fill="#fff"/><path d="M17.69,38.08c.76-.16,1.53.38,1.62,1.15.08.63.08,2.85-.04,3.43-.3,1.45-2.41,1.31-2.59-.14-.07-.59-.09-2.91.02-3.45.08-.4.59-.9.98-.98Z" fill="#fff"/><path d="M29.69,38.08c.76-.16,1.53.38,1.62,1.15.08.63.08,2.85-.04,3.43-.3,1.45-2.41,1.31-2.59-.14-.07-.59-.09-2.91.02-3.45.08-.4.59-.9.98-.98Z" fill="#fff"/><path d="M41.69,38.08c.76-.16,1.53.38,1.62,1.15.08.63.08,2.85-.04,3.43-.3,1.45-2.41,1.31-2.59-.14-.07-.59-.09-2.91.02-3.45.08-.4.59-.9.98-.98Z" fill="#fff"/><path d="M11.69,42.21c.76-.16,1.53.38,1.62,1.15.08.63.08,2.85-.04,3.43-.3,1.45-2.41,1.31-2.59-.14-.07-.59-.09-2.91.02-3.45.08-.4.59-.9.98-.98Z" fill="#fff"/><path d="M23.69,42.21c.76-.16,1.53.38,1.62,1.15.08.63.08,2.85-.04,3.43-.3,1.45-2.41,1.31-2.59-.14-.07-.59-.09-2.91.02-3.45.08-.4.59-.9.98-.98Z" fill="#fff"/><path d="M35.69,42.21c.76-.16,1.53.38,1.62,1.15.08.63.08,2.85-.04,3.43-.3,1.45-2.41,1.31-2.59-.14-.07-.59-.09-2.91.02-3.45.08-.4.59-.9.98-.98Z" fill="#fff"/></svg>