<?xml version="1.0" encoding="UTF-8"?><svg id="air-temperature_copy" xmlns="http://www.w3.org/2000/svg" width="384" height="384" viewBox="0 0 384 384"><path d="M206.02,50.48c4.77,5.39-2.68,18.1-4.64,24.52-15.05,49.38,4.57,73.59,23.01,115.74,16.02,36.63,14.91,79.6-6.28,113.99-5.58,9.06-20.18,25.96-29.94,30.05-6.48,2.72-12.19-.18-11.98-7.42.13-4.27,6.59-18.22,8.11-24.2,11.8-46.37-7.46-70.54-24.67-109.9-19.64-44.93-13.08-103.85,25.62-136.64,4.87-4.12,15.05-12.6,20.77-6.13Z" fill="#fff"/><path d="M110.06,48.15c5.33-1.04,10.26,2.99,9.99,8.46-.17,3.55-5.79,15.11-7.17,19.88-14.49,49.87,6.37,74.14,24.5,116.49,16.98,39.65,12.15,91.55-16.65,124.61-4.25,4.88-18.84,18.71-25.09,18.45-4.01-.17-7.71-3.93-7.77-7.91-.05-3.23,5.68-15.42,7-19.89,20.64-69.93-30.24-96.88-34.12-156.38-2.34-36.01,11.24-78.09,41.76-99.23,1.8-1.25,5.61-4.11,7.54-4.48Z" fill="#fff"/><path d="M286.3,48.16c4.72-.93,9.75,2.68,9.82,7.7.05,3.22-5.68,15.43-7,19.89-20.63,69.66,30.31,97.21,34.12,157.13,2.04,32.14-9.05,69.24-32.98,91.5-4.9,4.55-15.31,13.83-21.96,10.69-9-4.25-.06-18.41,2.07-25.33,15.8-51.23-5.07-75.12-23.75-118.74-15.95-37.25-12.7-83.61,10.77-116.99,4.83-6.87,20.9-24.28,28.92-25.86Z" fill="#fff"/></svg>