<?xml version="1.0" encoding="UTF-8"?><svg id="temperature-w" xmlns="http://www.w3.org/2000/svg" width="203.9" height="408.34" viewBox="0 0 203.9 408.34"><path d="M109.96,408.34h-15.97c-89.7-8.25-126.48-118.49-59.9-179.27V61.39c9.98-81.84,125.77-81.87,135.78,0v167.69c66.37,59.65,29.95,172.28-59.91,179.27ZM96.19,34.08c-17.04,2.32-28.99,19.45-28.59,36.08l.02,174.08c-.5,2.63-14.14,13.62-17.16,17.17-31.47,37.07-15.81,95.45,30.94,109.61,66.03,19.99,116.43-57.36,72.08-109.61-3.01-3.55-16.66-14.55-17.16-17.17l.02-174.87c-.47-22.11-17.69-38.35-40.15-35.29Z" fill="#fff"/><path d="M118.74,136.08v122.16c15.16,4.33,27.69,17.94,32.16,32.91,12.52,41.96-29.39,79.29-69.66,61.68-42.3-18.5-39.59-80.29,3.96-94.59v-122.16h33.53Z" fill="#fff"/></svg>