<?xml version="1.0" encoding="UTF-8"?><svg id="user-w" xmlns="http://www.w3.org/2000/svg" width="409.6" height="409.6" viewBox="0 0 409.6 409.6"><path d="M409.6,193.16v23.94c-1.22,4.9-1.05,10.36-1.71,15.45-11.75,90.01-85.1,163.6-175.26,175.2-5.09.65-10.56.5-15.46,1.71-7.94-.32-16.03.44-23.95,0C18.47,399.75-64.03,184.73,60.76,60.34,185.37-63.86,399.9,18.72,409.6,193.16ZM340.94,322.46c1.57.41,1.54-.65,2.24-1.34,9.1-8.97,20.13-28.14,25.58-39.87,47.48-102.07-9.91-223.39-118.51-250.85C122.87-1.82,6.25,106.49,27.38,235.63c5.25,32.05,20.11,62.18,40.9,86.83,1.71.35,1.06-.71,1.4-1.76,1.68-5.25,2.98-10.64,4.99-15.78,14.01-35.8,45.32-66.75,81.83-79.04,1.02-1.13-6.49-6.13-7.61-7.16-39.84-36.61-40.25-98.68,3.25-132.48,64.48-50.1,155.36,8.78,136.66,87.93-4.83,20.44-18.03,38.37-34.88,50.52,5.52,3.27,11.62,5.23,17.29,8.24,34.11,18.14,61.06,51.69,69.73,89.53ZM267.21,153.82c0-34.23-27.76-61.99-62.01-61.99s-62.01,27.75-62.01,61.99,27.76,61.99,62.01,61.99,62.01-27.75,62.01-61.99ZM320.86,343.87c-9.71-84.26-104.01-130.96-177.08-85.6-30,18.62-49.87,50.14-54.42,85.21,59.92,49.87,145.9,55.89,212.06,14.11,6.74-4.25,12.85-9.29,19.44-13.73Z" fill="#fff"/></svg>