<?xml version="1.0" encoding="UTF-8"?><svg id="wind-dir-w" xmlns="http://www.w3.org/2000/svg" width="384" height="384" viewBox="0 0 384 384"><path d="M54.59,15.91c9.01-.8,16.76,6.33,17.44,15.19l-.03,322.53c-3.82,21-31.74,18.03-32.28-2.97V32.6c.11-8.17,6.55-15.95,14.88-16.69Z" fill="#fff"/><path d="M176.18,60.07l-.02,135.2-1.17,1.08c-11.53,1.32-23.98,6.25-35.32,7.43-10.62,1.1-18.15-3.62-19.66-14.43l.33-124.9c2.16-8.9,9.57-13.59,18.6-12.52,11.88,1.4,25.21,6.38,37.24,8.13Z" fill="#fff"/><polygon points="207.75 66.75 255.65 77.72 255.79 178.81 207.75 189 207.75 66.75" fill="#fff"/><path d="M288,171.75v-87.75l46.26,10.37c7.17,2.61,9.54,9.09,10.03,16.22.56,8.14,1.02,35.73-1.4,42.17-1.15,3.07-3.22,5.72-5.89,7.61-15.67,5.66-32.68,7.87-49,11.37Z" fill="#fff"/></svg>