<?xml version="1.0" encoding="UTF-8"?><svg id="wind-speed-w" xmlns="http://www.w3.org/2000/svg" width="384" height="384" viewBox="0 0 384 384"><path d="M258.57,384h-14.99c-8.33-1.64-16.4-3.36-24.14-6.97-21.74-10.13-37.87-31.33-41.59-55.13-1.05-6.73-2.39-14.37,1.7-20.36,5.81-8.51,17.57-8.96,23.95-.81,4.5,5.75,3.06,12.9,4.76,19.99,8.36,34.91,53.61,44.9,76.52,17.13,22.41-27.16,4.94-68.15-29.55-71.63H15.38c-8.14-.75-12.3-4.63-15.38-11.97v-6.75c2.36-5.87,6.45-10.64,13.08-11.29h244.39c81.43,8.78,91.62,122.04,13.08,145.16l-11.99,2.63Z" fill="#fff"/><path d="M383.73,125.25c.36,3.95.36,11.05,0,15-3.28,35.54-34.49,65.13-70.04,66.79l-239.86-.04c-18.46-1.87-18.46-28.11,0-29.98l239.1.02c39.73-3.48,55.73-53.48,23.94-78.76-24.01-19.09-61.64-6.88-69.42,22.74-2.37,9.03.47,20.68-9.88,25.37-7.87,3.56-18.72.17-20.98-8.52-5.21-20.05,10.13-48.14,24.96-61,44.46-38.54,116.76-10.31,122.17,48.39Z" fill="#fff"/><path d="M149.89,0c5.54,1.42,11.24,2.08,16.68,3.93,74.87,25.49,60.97,136.2-17.03,143.85H12.35c-6.34-1.2-10.07-5.61-12.35-11.28v-6.75c2.66-6.35,6.76-11.04,13.95-11.92l134.07-.09c31.15-4.67,48.28-38.24,32.25-66.01-20.27-35.1-73.61-25.5-81.13,14.09-1.45,7.62.44,15.66-7.18,20.56-11.63,7.47-24.05-1.54-23.76-14.74.67-30.97,23.11-59.33,52.31-68.44l14.4-3.21h14.99Z" fill="#fff"/></svg>