<?xml version="1.0" encoding="UTF-8"?><svg id="YT-b_copy" xmlns="http://www.w3.org/2000/svg" width="512" height="512" viewBox="0 0 512 512"><path d="M512,232v46c-1.66,1.04-1,3.8-1.02,5.49-.35,33.89-1.19,99.51-25.44,124.55-25.69,26.53-90.59,23.49-126.05,24.92-73.38,2.96-149.47,3.73-222.94.08-35.06-1.74-89.66-.8-113.4-29.57C2.63,378.58,1.55,315.51,1.16,283.49c-.02-1.69.64-4.45-1.02-5.49.32-14.63-.44-29.37,0-44,.59-19.79,1.9-41.48,4.01-61.49,6.2-58.92,18.71-82.83,80.48-89.5,83.04-8.97,176.43-6.92,259.88-3.97,36.59,1.29,110.42-1.4,137.97,22.99,27.84,24.64,28.48,94.54,29.52,129.97ZM205.08,180v153l132.96-76.01-132.96-76.99Z" fill="#fff"/></svg>