<?xml version="1.0" encoding="UTF-8"?><svg id="logo-w" xmlns="http://www.w3.org/2000/svg" xmlns:xlink="http://www.w3.org/1999/xlink" viewBox="0 0 3700 480"><defs><linearGradient id="linear-gradient" x1="26.18" y1="265.96" x2="3850.64" y2="265.96" gradientUnits="userSpaceOnUse"><stop offset="0" stop-color="#fff"/><stop offset=".5" stop-color="#fff"/><stop offset=".98" stop-color="#fff"/></linearGradient><linearGradient id="linear-gradient-2" x1="3609.15" y1="238.46" x2="58.18" y2="238.46" gradientUnits="userSpaceOnUse"><stop offset="0" stop-color="#fff"/><stop offset=".5" stop-color="#fff"/><stop offset=".98" stop-color="#fff"/></linearGradient></defs><path d="M95.18,408.46c-11.34-6.66-20.34-15.66-27-27-6.67-11.33-10-23.66-10-37V58.46h77.5v282h204V58.46h78.5v286c0,13.34-3.42,25.67-10.25,37-6.84,11.34-15.84,20.34-27,27-11.17,6.67-23.42,10-36.75,10h-212c-13.34,0-25.67-3.33-37-10Z" fill="url(#linear-gradient)"/><path d="M521.17,418.46c-13.34,0-25.67-3.33-37-10-11.34-6.66-20.34-15.66-27-27-6.67-11.33-10-23.66-10-37v-33.5h77.5v29.5h204v-63h-207.5c-13.34,0-25.67-3.33-37-10-11.34-6.66-20.34-15.58-27-26.75-6.67-11.16-10-23.58-10-37.25v-71c0-13.66,3.33-26.08,10-37.25,6.66-11.16,15.66-20.08,27-26.75,11.33-6.66,23.66-10,37-10h212c13.33,0,25.58,3.34,36.75,10,11.16,6.67,20.16,15.59,27,26.75,6.83,11.17,10.25,23.59,10.25,37.25v33.5h-78.5v-29.5h-204v63h208.5c13.33,0,25.58,3.34,36.75,10,11.16,6.67,20.16,15.59,27,26.75,6.83,11.17,10.25,23.59,10.25,37.25v71c0,13.34-3.42,25.67-10.25,37-6.84,11.34-15.84,20.34-27,27-11.17,6.67-23.42,10-36.75,10h-212Z" fill="url(#linear-gradient)"/><path d="M941.17,418.46L810.17,58.46h82.5l78.5,214.5,78.5-214.5h71.5l79,214.5,78.5-214.5h82l-131,360h-59.5l-85-231.5-84.5,231.5h-59.5Z" fill="url(#linear-gradient)"/><path d="M1386.16,418.46V58.46h332.5v78h-254v63h204.5v78h-204.5v63h254v78h-332.5Z" fill="url(#linear-gradient)"/><path d="M1744.16,132.46c0-13.66,3.33-26.08,10-37.25,6.66-11.16,15.66-20.08,27-26.75,11.33-6.66,23.66-10,37-10h211.5c13.66,0,26.08,3.34,37.25,10,11.16,6.67,20.16,15.59,27,26.75,6.83,11.17,10.25,23.59,10.25,37.25v286h-78.5v-116h-204v116h-77.5V132.46ZM2025.66,224.46v-88h-204v88h204Z" fill="url(#linear-gradient)"/><path d="M2259.16,418.46V136.46h-141V58.46h360v78h-141v282h-78Z" fill="url(#linear-gradient)"/><path d="M2491.15,418.46V58.46h77.5v141h212.5V58.46h77.5v360h-77.5v-141h-212.5v141h-77.5Z" fill="url(#linear-gradient)"/><path d="M2892.15,418.46V58.46h332.5v78h-254v63h204.5v78h-204.5v63h254v78h-332.5Z" fill="url(#linear-gradient)"/><path d="M3249.15,418.46V58.96h285.5c13.66,0,26.08,3.34,37.25,10,11.16,6.67,20.16,15.67,27,27,6.83,11.34,10.25,23.67,10.25,37v93c0,13.34-3.42,25.67-10.25,37-6.84,11.34-15.84,20.34-27,27-11.17,6.67-23.59,10-37.25,10l-208,.5v118h-77.5ZM3530.65,221.96v-85.5h-204v85.5h204ZM3528.65,418.46l-104.5-124.5h101.5l83,98v26.5h-80Z" fill="url(#linear-gradient)"/><path d="M95.18,408.46c-11.34-6.66-20.34-15.66-27-27-6.67-11.33-10-23.66-10-37V58.46h77.5v282h204V58.46h78.5v286c0,13.34-3.42,25.67-10.25,37-6.84,11.34-15.84,20.34-27,27-11.17,6.67-23.42,10-36.75,10h-212c-13.34,0-25.67-3.33-37-10Z" fill="url(#linear-gradient-2)"/><path d="M521.17,418.46c-13.34,0-25.67-3.33-37-10-11.34-6.66-20.34-15.66-27-27-6.67-11.33-10-23.66-10-37v-33.5h77.5v29.5h204v-63h-207.5c-13.34,0-25.67-3.33-37-10-11.34-6.66-20.34-15.58-27-26.75-6.67-11.16-10-23.58-10-37.25v-71c0-13.66,3.33-26.08,10-37.25,6.66-11.16,15.66-20.08,27-26.75,11.33-6.66,23.66-10,37-10h212c13.33,0,25.58,3.34,36.75,10,11.16,6.67,20.16,15.59,27,26.75,6.83,11.17,10.25,23.59,10.25,37.25v33.5h-78.5v-29.5h-204v63h208.5c13.33,0,25.58,3.34,36.75,10,11.16,6.67,20.16,15.59,27,26.75,6.83,11.17,10.25,23.59,10.25,37.25v71c0,13.34-3.42,25.67-10.25,37-6.84,11.34-15.84,20.34-27,27-11.17,6.67-23.42,10-36.75,10h-212Z" fill="url(#linear-gradient-2)"/><path d="M941.17,418.46L810.17,58.46h82.5l78.5,214.5,78.5-214.5h71.5l79,214.5,78.5-214.5h82l-131,360h-59.5l-85-231.5-84.5,231.5h-59.5Z" fill="url(#linear-gradient-2)"/><path d="M1386.16,418.46V58.46h332.5v78h-254v63h204.5v78h-204.5v63h254v78h-332.5Z" fill="url(#linear-gradient-2)"/><path d="M1744.16,132.46c0-13.66,3.33-26.08,10-37.25,6.66-11.16,15.66-20.08,27-26.75,11.33-6.66,23.66-10,37-10h211.5c13.66,0,26.08,3.34,37.25,10,11.16,6.67,20.16,15.59,27,26.75,6.83,11.17,10.25,23.59,10.25,37.25v286h-78.5v-116h-204v116h-77.5V132.46ZM2025.66,224.46v-88h-204v88h204Z" fill="url(#linear-gradient-2)"/><path d="M2259.16,418.46V136.46h-141V58.46h360v78h-141v282h-78Z" fill="url(#linear-gradient-2)"/><path d="M2491.15,418.46V58.46h77.5v141h212.5V58.46h77.5v360h-77.5v-141h-212.5v141h-77.5Z" fill="url(#linear-gradient-2)"/><path d="M2892.15,418.46V58.46h332.5v78h-254v63h204.5v78h-204.5v63h254v78h-332.5Z" fill="url(#linear-gradient-2)"/><path d="M3249.15,418.46V58.96h285.5c13.66,0,26.08,3.34,37.25,10,11.16,6.67,20.16,15.67,27,27,6.83,11.34,10.25,23.67,10.25,37v93c0,13.34-3.42,25.67-10.25,37-6.84,11.34-15.84,20.34-27,27-11.17,6.67-23.59,10-37.25,10l-208,.5v118h-77.5ZM3530.65,221.96v-85.5h-204v85.5h204ZM3528.65,418.46l-104.5-124.5h101.5l83,98v26.5h-80Z" fill="url(#linear-gradient-2)"/><path d="M95.18,408.46c-11.34-6.66-20.34-15.66-27-27-6.67-11.33-10-23.66-10-37V58.46h77.5v282h204V58.46h78.5v286c0,13.34-3.42,25.67-10.25,37-6.84,11.34-15.84,20.34-27,27-11.17,6.67-23.42,10-36.75,10h-212c-13.34,0-25.67-3.33-37-10Z" fill="url(#linear-gradient-2)"/><path d="M521.17,418.46c-13.34,0-25.67-3.33-37-10-11.34-6.66-20.34-15.66-27-27-6.67-11.33-10-23.66-10-37v-33.5h77.5v29.5h204v-63h-207.5c-13.34,0-25.67-3.33-37-10-11.34-6.66-20.34-15.58-27-26.75-6.67-11.16-10-23.58-10-37.25v-71c0-13.66,3.33-26.08,10-37.25,6.66-11.16,15.66-20.08,27-26.75,11.33-6.66,23.66-10,37-10h212c13.33,0,25.58,3.34,36.75,10,11.16,6.67,20.16,15.59,27,26.75,6.83,11.17,10.25,23.59,10.25,37.25v33.5h-78.5v-29.5h-204v63h208.5c13.33,0,25.58,3.34,36.75,10,11.16,6.67,20.16,15.59,27,26.75,6.83,11.17,10.25,23.59,10.25,37.25v71c0,13.34-3.42,25.67-10.25,37-6.84,11.34-15.84,20.34-27,27-11.17,6.67-23.42,10-36.75,10h-212Z" fill="url(#linear-gradient-2)"/><path d="M941.17,418.46L810.17,58.46h82.5l78.5,214.5,78.5-214.5h71.5l79,214.5,78.5-214.5h82l-131,360h-59.5l-85-231.5-84.5,231.5h-59.5Z" fill="url(#linear-gradient-2)"/><path d="M1386.16,418.46V58.46h332.5v78h-254v63h204.5v78h-204.5v63h254v78h-332.5Z" fill="url(#linear-gradient-2)"/><path d="M1744.16,132.46c0-13.66,3.33-26.08,10-37.25,6.66-11.16,15.66-20.08,27-26.75,11.33-6.66,23.66-10,37-10h211.5c13.66,0,26.08,3.34,37.25,10,11.16,6.67,20.16,15.59,27,26.75,6.83,11.17,10.25,23.59,10.25,37.25v286h-78.5v-116h-204v116h-77.5V132.46ZM2025.66,224.46v-88h-204v88h204Z" fill="url(#linear-gradient-2)"/><path d="M2259.16,418.46V136.46h-141V58.46h360v78h-141v282h-78Z" fill="url(#linear-gradient-2)"/><path d="M2491.15,418.46V58.46h77.5v141h212.5V58.46h77.5v360h-77.5v-141h-212.5v141h-77.5Z" fill="url(#linear-gradient-2)"/><path d="M2892.15,418.46V58.46h332.5v78h-254v63h204.5v78h-204.5v63h254v78h-332.5Z" fill="url(#linear-gradient-2)"/><path d="M3249.15,418.46V58.96h285.5c13.66,0,26.08,3.34,37.25,10,11.16,6.67,20.16,15.67,27,27,6.83,11.34,10.25,23.67,10.25,37v93c0,13.34-3.42,25.67-10.25,37-6.84,11.34-15.84,20.34-27,27-11.17,6.67-23.59,10-37.25,10l-208,.5v118h-77.5ZM3530.65,221.96v-85.5h-204v85.5h204ZM3528.65,418.46l-104.5-124.5h101.5l83,98v26.5h-80Z" fill="url(#linear-gradient-2)"/><path d="M95.18,408.46c-11.34-6.66-20.34-15.66-27-27-6.67-11.33-10-23.66-10-37V58.46h77.5v282h204V58.46h78.5v286c0,13.34-3.42,25.67-10.25,37-6.84,11.34-15.84,20.34-27,27-11.17,6.67-23.42,10-36.75,10h-212c-13.34,0-25.67-3.33-37-10Z" fill="url(#linear-gradient-2)"/><path d="M521.17,418.46c-13.34,0-25.67-3.33-37-10-11.34-6.66-20.34-15.66-27-27-6.67-11.33-10-23.66-10-37v-33.5h77.5v29.5h204v-63h-207.5c-13.34,0-25.67-3.33-37-10-11.34-6.66-20.34-15.58-27-26.75-6.67-11.16-10-23.58-10-37.25v-71c0-13.66,3.33-26.08,10-37.25,6.66-11.16,15.66-20.08,27-26.75,11.33-6.66,23.66-10,37-10h212c13.33,0,25.58,3.34,36.75,10,11.16,6.67,20.16,15.59,27,26.75,6.83,11.17,10.25,23.59,10.25,37.25v33.5h-78.5v-29.5h-204v63h208.5c13.33,0,25.58,3.34,36.75,10,11.16,6.67,20.16,15.59,27,26.75,6.83,11.17,10.25,23.59,10.25,37.25v71c0,13.34-3.42,25.67-10.25,37-6.84,11.34-15.84,20.34-27,27-11.17,6.67-23.42,10-36.75,10h-212Z" fill="url(#linear-gradient-2)"/><path d="M941.17,418.46L810.17,58.46h82.5l78.5,214.5,78.5-214.5h71.5l79,214.5,78.5-214.5h82l-131,360h-59.5l-85-231.5-84.5,231.5h-59.5Z" fill="url(#linear-gradient-2)"/><path d="M1386.16,418.46V58.46h332.5v78h-254v63h204.5v78h-204.5v63h254v78h-332.5Z" fill="url(#linear-gradient-2)"/><path d="M1744.16,132.46c0-13.66,3.33-26.08,10-37.25,6.66-11.16,15.66-20.08,27-26.75,11.33-6.66,23.66-10,37-10h211.5c13.66,0,26.08,3.34,37.25,10,11.16,6.67,20.16,15.59,27,26.75,6.83,11.17,10.25,23.59,10.25,37.25v286h-78.5v-116h-204v116h-77.5V132.46ZM2025.66,224.46v-88h-204v88h204Z" fill="url(#linear-gradient-2)"/><path d="M2259.16,418.46V136.46h-141V58.46h360v78h-141v282h-78Z" fill="url(#linear-gradient-2)"/><path d="M2491.15,418.46V58.46h77.5v141h212.5V58.46h77.5v360h-77.5v-141h-212.5v141h-77.5Z" fill="url(#linear-gradient-2)"/><path d="M2892.15,418.46V58.46h332.5v78h-254v63h204.5v78h-204.5v63h254v78h-332.5Z" fill="url(#linear-gradient-2)"/><path d="M3249.15,418.46V58.96h285.5c13.66,0,26.08,3.34,37.25,10,11.16,6.67,20.16,15.67,27,27,6.83,11.34,10.25,23.67,10.25,37v93c0,13.34-3.42,25.67-10.25,37-6.84,11.34-15.84,20.34-27,27-11.17,6.67-23.59,10-37.25,10l-208,.5v118h-77.5ZM3530.65,221.96v-85.5h-204v85.5h204ZM3528.65,418.46l-104.5-124.5h101.5l83,98v26.5h-80Z" fill="url(#linear-gradient-2)"/></svg>